:version 1.10
:name ASF
:units
  mass 1
  length 1
  angle deg
:documentation
  ASF file generated by Kaydara
:root
  axis xyz
  order  tx ty tz rx ry rz
  position 0 0 0
  orientation 0 0 0
:bonedata
  begin
    id 1
    name RightUpLegDummy
    direction -0.65628 -0.754516 0.00165102
    length 4.76918
    axis 0 0 0 xyz
  end
  begin
    id 2
    name RightUpLeg
    direction -0.145584 -0.923362 0.355256
    length 17.9961
    axis -24.7611 -13.1006 1.78531 xyz
    dof rx ry rz
  end
  begin
    id 3
    name RightLeg
    direction 0.263379 0.172355 -0.949171
    length 13.3386
    axis 89.6202 -21.1929 12.3855 xyz
    dof rx ry rz
  end
  begin
    id 4
    name RightFoot
    direction 0.224283 -0.968777 -0.105675
    length 5.86697
    axis 56.995 -39.6905 17.3365 xyz
    dof rx ry rz
  end
  begin
    id 5
    name RightToes
    direction -0.0806345 -0.9037 0.420506
    length 4.75197
    axis 146.825 -39.7828 17.6019 xyz
    dof rx ry rz
  end
  begin
    id 6
    name SpineDummy
    direction -3.39852e-014 1 9.33296e-014
    length 8.13779
    axis 0 0 0 xyz
  end
  begin
    id 7
    name Spine
    direction -0.156609 0.733703 0.661176
    length 7.14978
    axis 41.2365 5.68757 17.0844 xyz
    dof rx ry rz
  end
  begin
    id 8
    name Spine1
    direction 0 0 0
    length 0
    axis 42.8809 47.8308 -3.36039 xyz
    dof rx ry rz
  end
  begin
    id 9
    name HEadDummy
    direction 0.546431 0.701947 0.456819
    length 3.55512
    axis 42.8809 47.8308 -3.36039 xyz
  end
  begin
    id 10
    name HEad
    direction 0.23444 0.828559 0.508457
    length 7.35827
    axis 51.1864 49.2662 27.4903 xyz
    dof rx ry rz
  end
  begin
    id 11
    name LeftShoulder1Dummy
    direction 0.431183 0.475873 -0.766568
    length 2.49352
    axis 42.8809 47.8308 -3.36039 xyz
  end
  begin
    id 12
    name LeftShoulder1
    direction 0.268187 -0.383402 -0.883786
    length 4.48604
    axis -119.517 0.106469 35.1736 xyz
    dof rx ry rz
  end
  begin
    id 13
    name LeftArm
    direction 0.380567 -0.703221 -0.600541
    length 10.1142
    axis -5.41825 36.2925 7.8293 xyz
    dof rx ry rz
  end
  begin
    id 14
    name LeftForeArm
    direction 0.541071 -0.732356 -0.413396
    length 9.39839
    axis 4.65387 33.7604 7.81644 xyz
    dof rx ry rz
  end
  begin
    id 15
    name LeftHand
    direction 0.847511 -0.389379 -0.360707
    length 3.66142
    axis 7.65593 21.1436 -24.6758 xyz
    dof rx ry rz
  end
  begin
    id 16
    name RightShoulderDummy
    direction -0.692546 0.541855 0.476208
    length 2.49352
    axis 42.8809 47.8308 -3.36039 xyz
  end
  begin
    id 17
    name RightShoulder
    direction -0.870808 -0.316653 0.376065
    length 4.48602
    axis 141.571 51.133 -100.254 xyz
    dof rx ry rz
  end
  begin
    id 18
    name RightArm
    direction 0.366897 -0.87275 0.322015
    length 10.1142
    axis 92.3258 71.2036 138.917 xyz
    dof rx ry rz
  end
  begin
    id 19
    name RightForeArm
    direction 0.702487 -0.694568 0.155197
    length 9.39835
    axis 153.863 41.5092 -176.604 xyz
    dof rx ry rz
  end
  begin
    id 20
    name RightHand
    direction 0.79502 -0.601276 0.0800636
    length 3.66142
    axis 154.247 4.59222 142.9 xyz
    dof rx ry rz
  end
  begin
    id 21
    name LeftUpLegDummy
    direction 0.65628 -0.754516 0.00165102
    length 4.76919
    axis 0 0 0 xyz
  end
  begin
    id 22
    name LeftUpLeg
    direction -0.1277 -0.689368 0.713067
    length 17.9961
    axis -48.3385 -17.8675 0.791927 xyz
    dof rx ry rz
  end
  begin
    id 23
    name LeftLeg
    direction 0.109849 -0.991246 -0.0732378
    length 13.3386
    axis -2.05791 -7.30784 1.72042 xyz
    dof rx ry rz
  end
  begin
    id 24
    name LeftFoot
    direction 0.0448355 -0.272614 0.961078
    length 5.86697
    axis -18.7733 -7.89606 10.2113 xyz
    dof rx ry rz
  end
  begin
    id 25
    name LeftToes
    direction -0.18506 0.293668 0.937823
    length 4.75197
    axis 71.2267 -7.89606 10.2113 xyz
    dof rx ry rz
  end
:hierarchy
  begin
    root RightUpLegDummy SpineDummy LeftUpLegDummy
    RightUpLegDummy RightUpLeg
    RightUpLeg RightLeg
    RightLeg RightFoot
    RightFoot RightToes
    SpineDummy Spine
    Spine Spine1
    Spine1 HEadDummy LeftShoulder1Dummy RightShoulderDummy
    HEadDummy HEad
    LeftShoulder1Dummy LeftShoulder1
    LeftShoulder1 LeftArm
    LeftArm LeftForeArm
    LeftForeArm LeftHand
    RightShoulderDummy RightShoulder
    RightShoulder RightArm
    RightArm RightForeArm
    RightForeArm RightHand
    LeftUpLegDummy LeftUpLeg
    LeftUpLeg LeftLeg
    LeftLeg LeftFoot
    LeftFoot LeftToes
  end

:SAMPLES-PER-SECOND 30
:FULLY-SPECIFIED
:DEGREES
297
root  -7.52559 37.1104 -71.2449 172.247 46.585 177.589
RightUpLeg  -3.56994 12.2513 5.52437
RightLeg  -71.6456 -15.7161 3.59445
RightFoot  20.3333 4.00027 -14.6248
RightToes  -1.27222e-014 -6.36111e-015 6.36111e-015
Spine  -24.4072 -24.9231 -20.6091
Spine1  8.00535 -16.8093 56.1628
HEad  -11.2349 -48.3067 -10.7928
LeftShoulder1  6.36111e-015 -1.33558e-015 6.49777e-015
LeftArm  5.09316 -26.0601 -38.2682
LeftForeArm  -53.7601 -48.8425 34.2461
LeftHand  -0.238885 1.20484 -7.50604
RightShoulder  -4.77083e-015 -6.36111e-015 -3.18055e-015
RightArm  48.4107 -30.5299 3.22349
RightForeArm  -21.3294 -13.9081 -7.42041
RightHand  1.50935 -1.36966 -8.84428
LeftUpLeg  42.9463 37.3154 42.5986
LeftLeg  -4.10932 4.10796 -0.416605
LeftFoot  -2.86052 1.82645 -6.69349
LeftToes  9.54166e-015 4.2066e-011 -8.07781e-011
298
root  -7.78463 37.202 -71.5538 172.183 52.584 176.866
RightUpLeg  -5.89404 8.66561 4.38311
RightLeg  -71.1448 -17.3844 6.55698
RightFoot  19.0227 4.6578 -15.4058
RightToes  -1.27222e-014 -6.36111e-015 6.36111e-015
Spine  -25.0664 -27.0948 -21.5821
Spine1  8.5371 -18.2737 57.0775
HEad  -10.8949 -52.7182 -10.7742
LeftShoulder1  6.36111e-015 -1.33558e-015 6.49777e-015
LeftArm  5.94639 -29.6493 -35.33
LeftForeArm  -55.6168 -49.8195 37.2958
LeftHand  -0.450084 0.704755 -8.10722
RightShoulder  -4.77083e-015 -6.36111e-015 -3.18055e-015
RightArm  50.3317 -32.3765 -1.33589
RightForeArm  -22.9543 -11.877 -8.51457
RightHand  1.12757 -0.586955 -7.5102
LeftUpLeg  45.7599 39.5223 46.4894
LeftLeg  -5.28158 6.50461 -0.545197
LeftFoot  -2.63651 1.73344 -6.30168
LeftToes  9.54166e-015 4.2066e-011 -8.07781e-011
299
root  -7.88854 37.5251 -71.9244 171.644 59.1785 175.625
RightUpLeg  -7.23387 6.50805 3.7556
RightLeg  -70.957 -18.3944 8.29166
RightFoot  18.6516 4.88632 -15.7025
RightToes  -1.27222e-014 -6.36111e-015 6.36111e-015
Spine  -25.9551 -28.5185 -21.6583
Spine1  7.49761 -19.2543 56.9147
HEad  -9.16229 -56.1755 -12.3283
LeftShoulder1  6.36111e-015 -1.33558e-015 6.49777e-015
LeftArm  8.50904 -30.4188 -34.4864
LeftForeArm  -55.7593 -50.9449 39.4215
LeftHand  -0.904198 -0.336517 -9.78652
RightShoulder  -4.77083e-015 -6.36111e-015 -3.18055e-015
RightArm  52.6587 -34.4415 -5.60843
RightForeArm  -22.2832 -9.91056 -9.37634
RightHand  0.787007 -0.138263 -5.76387
LeftUpLeg  49.7325 41.2399 50.2684
LeftLeg  -8.58837 9.1796 -1.37325
LeftFoot  -1.27923 2.04334 -7.1266
LeftToes  9.54166e-015 4.2066e-011 -8.07781e-011
300
root  -7.82001 37.9872 -72.2581 170.916 66.2239 174.639
RightUpLeg  -7.10839 5.27764 4.04475
RightLeg  -72.093 -18.4054 8.89469
RightFoot  18.8997 5.16008 -16.1778
RightToes  -1.27222e-014 -6.36111e-015 6.36111e-015
Spine  -26.8348 -29.1088 -21.0453
Spine1  5.63192 -19.7757 56.655
HEad  -6.15303 -57.9095 -14.865
LeftShoulder1  6.36111e-015 -1.33558e-015 6.49777e-015
LeftArm  11.8784 -29.0172 -35.2023
LeftForeArm  -54.2042 -51.6356 39.3663
LeftHand  -1.20687 -0.954049 -11.4813
RightShoulder  -4.77083e-015 -6.36111e-015 -3.18055e-015
RightArm  54.9259 -36.581 -10.6202
RightForeArm  -20.6274 -8.94029 -9.58293
RightHand  0.693317 -0.0124011 -5.2666
LeftUpLeg  53.7112 41.3 53.4813
LeftLeg  -12.0468 10.5648 -2.47561
LeftFoot  1.03537 3.10929 -10.1195
LeftToes  9.54166e-015 4.2066e-011 -8.07781e-011
301
root  -7.56871 38.4589 -72.4851 169.548 73.1327 173.256
RightUpLeg  -5.79434 4.74102 4.6094
RightLeg  -75.1277 -17.4383 8.66531
RightFoot  19.0433 5.9993 -17.5278
RightToes  -1.27222e-014 -6.36111e-015 6.36111e-015
Spine  -28.0814 -29.3749 -20.423
Spine1  4.1484 -20.026 57.088
HEad  -2.80503 -57.7493 -17.2105
LeftShoulder1  6.36111e-015 -1.33558e-015 6.49777e-015
LeftArm  15.418 -27.5222 -36.7401
LeftForeArm  -50.5155 -51.6187 36.4587
LeftHand  -1.18064 -0.700655 -12.0975
RightShoulder  -4.77083e-015 -6.36111e-015 -3.18055e-015
RightArm  57.0178 -38.094 -15.996
RightForeArm  -19.2515 -9.33396 -9.16282
RightHand  0.76821 -0.0720376 -5.7343
LeftUpLeg  55.86 39.1295 53.5466
LeftLeg  -13.9789 8.54018 -2.90102
LeftFoot  3.7802 4.65844 -13.9795
LeftToes  9.54166e-015 4.2066e-011 -8.07781e-011
302
root  -7.19488 38.8553 -72.6106 165.987 79.2421 169.604
RightUpLeg  -3.90584 5.31336 4.76977
RightLeg  -80.3754 -15.9519 8.42403
RightFoot  18.5363 7.04195 -19.1292
RightToes  -1.27222e-014 -6.36111e-015 6.36111e-015
Spine  -29.9767 -29.7743 -19.9184
Spine1  3.41316 -20.2858 58.3935
HEad  0.361681 -56.0047 -19.1951
LeftShoulder1  6.36111e-015 -1.33558e-015 6.49777e-015
LeftArm  18.9885 -26.7755 -38.6907
LeftForeArm  -45.4038 -51.1396 32.1055
LeftHand  -1.10528 -0.535102 -11.6939
RightShoulder  -4.77083e-015 -6.36111e-015 -3.18055e-015
RightArm  58.5873 -38.2896 -20.2486
RightForeArm  -18.558 -11.1372 -8.25746
RightHand  0.837837 -0.0818022 -6.24375
LeftUpLeg  55.3029 34.6366 47.8567
LeftLeg  -15.0762 2.92313 -2.53386
LeftFoot  6.38629 5.81756 -16.222
LeftToes  9.54166e-015 4.2066e-011 -8.07781e-011
